<svg width="55" height="55" viewBox="0 0 55 55" fill="none" xmlns="http://www.w3.org/2000/svg">
<path d="M18.3584 13.3714H38.6353C39.2409 13.3714 39.7483 13.5764 40.1578 13.9863C40.5676 14.3961 40.7726 14.9041 40.7726 15.5101C40.7726 16.1157 40.5676 16.6232 40.1578 17.0326C39.7483 17.4415 39.2409 17.646 38.6353 17.646H18.3584C17.7528 17.646 17.2453 17.441 16.8359 17.0311C16.4261 16.6213 16.2211 16.1135 16.2211 15.508C16.2211 14.9019 16.4261 14.3945 16.8359 13.9855C17.2453 13.5761 17.7528 13.3714 18.3584 13.3714ZM18.3584 21.5921H38.6353C39.2409 21.5921 39.7483 21.797 40.1578 22.2069C40.5676 22.6163 40.7726 23.124 40.7726 23.73C40.7726 24.3361 40.5676 24.8435 40.1578 25.2525C39.7483 25.6619 39.2409 25.8666 38.6353 25.8666H18.3584C17.7528 25.8666 17.2453 25.6616 16.8359 25.2518C16.4261 24.8419 16.2211 24.3339 16.2211 23.7279C16.2211 23.1223 16.4261 22.6149 16.8359 22.2055C17.2453 21.7965 17.7528 21.5921 18.3584 21.5921ZM7.12421 54.144C5.13323 54.144 3.44812 53.4544 2.06887 52.0751C0.689623 50.6959 0 49.0108 0 47.0198V41.3753C0 40.6453 0.246972 40.0336 0.740918 39.5401C1.23439 39.0466 1.84612 38.7999 2.57611 38.7999H8.54905V5.15152C8.54905 3.73475 9.05345 2.52197 10.0622 1.51318C11.071 0.504393 12.2838 0 13.7006 0H43.2931C44.7099 0 45.9227 0.504393 46.9315 1.51318C47.9402 2.52197 48.4446 3.73475 48.4446 5.15152V21.9753C48.4446 22.5809 48.2397 23.0886 47.8298 23.4985C47.4199 23.9079 46.9122 24.1126 46.3067 24.1126C45.7006 24.1126 45.1931 23.9079 44.7842 23.4985C44.3748 23.0886 44.1701 22.5809 44.1701 21.9753V5.15152C44.1701 4.89552 44.0879 4.68536 43.9236 4.52103C43.7593 4.35669 43.5491 4.27453 43.2931 4.27453H13.7006C13.4446 4.27453 13.2344 4.35669 13.0701 4.52103C12.9057 4.68536 12.8236 4.89552 12.8236 5.15152V38.7999H21.8656C22.4712 38.7999 22.9789 39.0046 23.3888 39.414C23.7982 39.8239 24.0029 40.3318 24.0029 40.9379C24.0029 41.5434 23.7982 42.0509 23.3888 42.4603C22.9789 42.8692 22.4712 43.0737 21.8656 43.0737H4.27453V47.0198C4.27453 47.8272 4.54762 48.504 5.09381 49.0502C5.64 49.5964 6.3168 49.8695 7.12421 49.8695H21.8656C22.4712 49.8695 22.9789 50.0744 23.3888 50.4843C23.7982 50.8942 24.0029 51.4019 24.0029 52.0075C24.0029 52.6135 23.7982 53.121 23.3888 53.5299C22.9789 53.9393 22.4712 54.144 21.8656 54.144H7.12421ZM30.2508 51.5679V47.688C30.2508 47.3527 30.3128 47.0279 30.4368 46.7135C30.5612 46.399 30.7566 46.1084 31.0231 45.8414L45.7211 31.2147C46.0754 30.8604 46.4579 30.6111 46.8688 30.4667C47.2796 30.3228 47.6904 30.2508 48.1012 30.2508C48.5491 30.2508 48.9825 30.3347 49.4014 30.5023C49.8203 30.6704 50.201 30.9226 50.5434 31.2589L53.1794 33.9219C53.4862 34.2767 53.7237 34.6605 53.8918 35.0732C54.0599 35.4859 54.144 35.8987 54.144 36.3114C54.144 36.7241 54.0673 37.1442 53.9139 37.5717C53.7605 37.9991 53.5156 38.39 53.1794 38.7443L38.5527 53.371C38.2862 53.6379 37.9958 53.8334 37.6814 53.9573C37.3665 54.0818 37.0414 54.144 36.7061 54.144H32.8262C32.0962 54.144 31.4845 53.897 30.991 53.4031C30.4976 52.9096 30.2508 52.2979 30.2508 51.5679ZM33.6484 50.7465H36.3556L45.6056 41.4515L44.2962 40.0979L42.9697 38.7614L33.6484 48.0393V50.7465ZM44.2962 40.0979L42.9697 38.7614L45.6056 41.4515L44.2962 40.0979Z" fill="#C34EED"/>
</svg>
