<svg width="55" height="46" viewBox="0 0 55 46" fill="none" xmlns="http://www.w3.org/2000/svg">
<path d="M40.3802 30.2618L51.6094 20.612L52.8446 20.7069C53.5234 20.7877 54.0525 21.07 54.4318 21.5538C54.8106 22.0376 55 22.5617 55 23.1263C55 23.449 54.9398 23.7658 54.8194 24.0766C54.6989 24.388 54.4781 24.6603 54.157 24.8934L45.8906 32.0968L48.3733 42.9046C48.4047 42.9843 48.4204 43.0744 48.4204 43.1747V43.4449C48.4204 44.1258 48.186 44.6927 47.7171 45.1456C47.2477 45.599 46.6906 45.8257 46.0458 45.8257C45.844 45.8257 45.6322 45.8021 45.4104 45.7547C45.1886 45.7074 44.9786 45.6163 44.7805 45.4814L43.7831 44.8638L40.3802 30.2618ZM33.8067 9.88757L30.6833 2.55913L31.111 1.51463C31.307 1.02983 31.6115 0.656184 32.0242 0.39371C32.4364 0.131235 32.8649 0 33.3096 0C33.7542 0 34.1886 0.124802 34.6127 0.37441C35.0373 0.623504 35.3486 0.987625 35.5468 1.46677L39.3171 10.404L33.8067 9.88757ZM13.3491 38.0349L23.0761 32.1678L32.8031 38.1121L30.2556 26.9955L38.8246 19.5845L27.5537 18.5809L23.0761 8.0819L18.5986 18.5037L7.32767 19.5073L15.8967 26.9955L13.3491 38.0349ZM7.79704 41.3011L10.7483 28.6699L0.944136 20.1727C0.591597 19.8835 0.346106 19.5562 0.207663 19.1908C0.0692208 18.8253 0 18.4597 0 18.0938C0 17.4391 0.224647 16.8311 0.673942 16.2696C1.12324 15.7086 1.74571 15.3864 2.54137 15.303L15.4837 14.1667L20.4869 2.26886C20.7195 1.71046 21.0801 1.29179 21.5685 1.01284C22.0569 0.733384 22.5569 0.593656 23.0684 0.593656C23.5805 0.593656 24.0826 0.733384 24.5746 1.01284C25.0671 1.29179 25.4307 1.71046 25.6654 2.26886L30.6686 14.1667L43.6109 15.303C44.4066 15.3864 45.0291 15.7083 45.4783 16.2688C45.9276 16.8298 46.1523 17.4373 46.1523 18.0914C46.1523 18.4651 46.0831 18.8331 45.9446 19.1954C45.8062 19.5577 45.5607 19.8835 45.2082 20.1727L35.404 28.6699L38.3653 41.3019C38.4101 41.4357 38.4324 41.6429 38.4324 41.9234C38.4324 42.718 38.154 43.384 37.5972 43.9213C37.0403 44.4586 36.3908 44.7272 35.6487 44.7272C35.5092 44.7272 35.0159 44.5826 34.1688 44.2934L23.0761 37.6134L11.9835 44.2934C11.7457 44.4282 11.499 44.5342 11.2432 44.6114C10.9874 44.6886 10.7432 44.7272 10.5106 44.7272C9.67322 44.7272 8.95218 44.3888 8.34746 43.712C7.74274 43.0348 7.55927 42.2311 7.79704 41.3011Z" fill="#EE4A8C"/>
</svg>
