<svg width="52" height="55" viewBox="0 0 52 55" fill="none" xmlns="http://www.w3.org/2000/svg">
<path d="M22.7993 54.8979C21.814 54.8979 20.9631 54.5709 20.2466 53.9169C19.5295 53.2634 19.0932 52.4588 18.9377 51.5029L18.232 46.0961C17.4581 45.8371 16.6645 45.4742 15.8511 45.0076C15.0382 44.5405 14.3113 44.0404 13.6704 43.5073L8.66383 45.6353C7.75609 46.0355 6.84402 46.0742 5.92761 45.7516C5.01072 45.4294 4.29849 44.8443 3.79093 43.9963L0.534616 38.3505C0.027052 37.5025 -0.119101 36.6051 0.096156 35.6583C0.310932 34.7121 0.803568 33.9314 1.57406 33.3165L5.90233 30.066C5.83587 29.6364 5.78868 29.2049 5.76075 28.7715C5.73282 28.3381 5.71885 27.9064 5.71885 27.4764C5.71885 27.0656 5.73282 26.6481 5.76075 26.2238C5.78868 25.7996 5.83587 25.3356 5.90233 24.8319L1.57406 21.5814C0.803568 20.9664 0.315507 20.181 0.109881 19.2251C-0.0957456 18.2697 0.0552233 17.3677 0.562788 16.5192L3.79093 10.9572C4.29849 10.1275 5.01072 9.54693 5.92761 9.21562C6.84402 8.88382 7.75609 8.91801 8.66383 9.31819L13.6422 11.4188C14.339 10.8669 15.0828 10.3622 15.8735 9.90473C16.6642 9.44725 17.4412 9.07957 18.2045 8.80171L18.9377 3.395C19.0932 2.4391 19.5295 1.63442 20.2466 0.980939C20.9631 0.326981 21.814 0 22.7993 0H29.2007C30.186 0 31.0369 0.326981 31.7534 0.980939C32.4705 1.63442 32.9068 2.4391 33.0623 3.395L33.768 8.82916C34.6349 9.1441 35.4191 9.51178 36.1207 9.93218C36.8228 10.3526 37.5314 10.8481 38.2466 11.4188L43.3643 9.31819C44.2716 8.91801 45.1837 8.88382 46.1006 9.21562C47.0175 9.54693 47.7294 10.1275 48.2365 10.9572L51.4654 16.5474C51.9729 17.3954 52.1191 18.2928 51.9038 19.2395C51.6891 20.1858 51.1964 20.9664 50.4259 21.5814L45.9864 24.915C46.09 25.3816 46.1465 25.8179 46.1562 26.2238C46.1653 26.6293 46.1699 27.0377 46.1699 27.4489C46.1699 27.8414 46.1605 28.2406 46.1417 28.6466C46.1234 29.052 46.057 29.516 45.9424 30.0385L50.2981 33.3165C51.0686 33.9314 51.566 34.7121 51.7904 35.6583C52.0144 36.6051 51.8725 37.5025 51.365 38.3505L48.0921 43.9681C47.585 44.8166 46.8684 45.402 45.9424 45.7241C45.0163 46.0463 44.0994 46.0073 43.1917 45.6071L38.2466 43.4791C37.5314 44.0498 36.8016 44.5544 36.0571 44.9931C35.3126 45.4323 34.5496 45.7908 33.768 46.0687L33.0623 51.5029C32.9068 52.4588 32.4705 53.2634 31.7534 53.9169C31.0369 54.5709 30.186 54.8979 29.2007 54.8979H22.7993ZM23.1106 50.5638H28.7897L29.8284 42.8239C31.3029 42.4387 32.6503 41.8914 33.8706 41.1821C35.0914 40.4722 36.2685 39.5599 37.4021 38.4451L44.5808 41.4623L47.4261 36.5504L41.1583 31.8278C41.3991 31.0794 41.5628 30.3458 41.6495 29.6268C41.7367 28.9083 41.7802 28.1823 41.7802 27.4489C41.7802 26.6967 41.7367 25.9708 41.6495 25.2711C41.5628 24.5709 41.3991 23.8558 41.1583 23.1257L47.481 18.3474L44.6364 13.4355L37.374 16.4968C36.407 15.4634 35.2486 14.5503 33.8988 13.7577C32.5485 12.965 31.1826 12.4038 29.801 12.0739L28.8894 4.33404H23.1554L22.199 12.0465C20.725 12.3946 19.3639 12.928 18.1157 13.6465C16.867 14.3654 15.6758 15.2915 14.5422 16.4246L7.36362 13.4355L4.51905 18.3474L10.7586 22.9979C10.5178 23.6836 10.3493 24.3968 10.253 25.1374C10.1567 25.8781 10.1085 26.6577 10.1085 27.4764C10.1085 28.2286 10.1567 28.9658 10.253 29.6882C10.3493 30.4105 10.5087 31.1237 10.7312 31.8278L4.51905 36.5504L7.36362 41.4623L14.5148 38.4285C15.6113 39.5544 16.7837 40.4768 18.0319 41.1958C19.2806 41.9143 20.6605 42.4661 22.1716 42.8514L23.1106 50.5638ZM26.0332 36.117C28.4372 36.117 30.4828 35.2733 32.1702 33.5859C33.8576 31.8985 34.7013 29.8529 34.7013 27.4489C34.7013 25.045 33.8576 22.9993 32.1702 21.3119C30.4828 19.6245 28.4372 18.7808 26.0332 18.7808C23.5994 18.7808 21.5463 19.6245 19.8738 21.3119C18.2014 22.9993 17.3651 25.045 17.3651 27.4489C17.3651 29.8529 18.2014 31.8985 19.8738 33.5859C21.5463 35.2733 23.5994 36.117 26.0332 36.117Z" fill="#5186F5"/>
</svg>
