<svg width="40" height="36" viewBox="0 0 40 36" fill="none" xmlns="http://www.w3.org/2000/svg">
<path d="M20 36L17.1 33.4496C13.7333 30.4741 10.95 27.9074 8.75 25.7493C6.55 23.5913 4.8 21.654 3.5 19.9373C2.2 18.2207 1.29167 16.6431 0.775 15.2044C0.258333 13.7657 0 12.2943 0 10.7902C0 7.71662 1.05 5.14986 3.15 3.08992C5.25 1.02997 7.86667 0 11 0C12.7333 0 14.3833 0.359673 15.95 1.07902C17.5167 1.79837 18.8667 2.81199 20 4.11989C21.1333 2.81199 22.4833 1.79837 24.05 1.07902C25.6167 0.359673 27.2667 0 29 0C32.1333 0 34.75 1.02997 36.85 3.08992C38.95 5.14986 40 7.71662 40 10.7902C40 12.2943 39.7417 13.7657 39.225 15.2044C38.7083 16.6431 37.8 18.2207 36.5 19.9373C35.2 21.654 33.45 23.5913 31.25 25.7493C29.05 27.9074 26.2667 30.4741 22.9 33.4496L20 36ZM20 30.703C23.2 27.891 25.8333 25.4796 27.9 23.4687C29.9667 21.4578 31.6 19.7084 32.8 18.2207C34 16.733 34.8333 15.4087 35.3 14.248C35.7667 13.0872 36 11.9346 36 10.7902C36 8.82834 35.3333 7.19346 34 5.88556C32.6667 4.57766 31 3.92371 29 3.92371C27.4333 3.92371 25.9833 4.35695 24.65 5.22343C23.3167 6.08992 22.4 7.19346 21.9 8.53406H18.1C17.6 7.19346 16.6833 6.08992 15.35 5.22343C14.0167 4.35695 12.5667 3.92371 11 3.92371C9 3.92371 7.33333 4.57766 6 5.88556C4.66667 7.19346 4 8.82834 4 10.7902C4 11.9346 4.23333 13.0872 4.7 14.248C5.16667 15.4087 6 16.733 7.2 18.2207C8.4 19.7084 10.0333 21.4578 12.1 23.4687C14.1667 25.4796 16.8 27.891 20 30.703Z" fill="#C37091"/>
</svg>
