<svg width="40" height="27" viewBox="0 0 40 27" fill="none" xmlns="http://www.w3.org/2000/svg">
<path d="M20 21.6C22.2727 21.6 24.2045 20.8125 25.7955 19.2375C27.3864 17.6625 28.1818 15.75 28.1818 13.5C28.1818 11.25 27.3864 9.3375 25.7955 7.7625C24.2045 6.1875 22.2727 5.4 20 5.4C17.7273 5.4 15.7955 6.1875 14.2045 7.7625C12.6136 9.3375 11.8182 11.25 11.8182 13.5C11.8182 15.75 12.6136 17.6625 14.2045 19.2375C15.7955 20.8125 17.7273 21.6 20 21.6ZM20 18.36C18.6364 18.36 17.4773 17.8875 16.5227 16.9425C15.5682 15.9975 15.0909 14.85 15.0909 13.5C15.0909 12.15 15.5682 11.0025 16.5227 10.0575C17.4773 9.1125 18.6364 8.64 20 8.64C21.3636 8.64 22.5227 9.1125 23.4773 10.0575C24.4318 11.0025 24.9091 12.15 24.9091 13.5C24.9091 14.85 24.4318 15.9975 23.4773 16.9425C22.5227 17.8875 21.3636 18.36 20 18.36ZM20 27C15.5758 27 11.5455 25.7775 7.90909 23.3325C4.27273 20.8875 1.63636 17.61 0 13.5C1.63636 9.39 4.27273 6.1125 7.90909 3.6675C11.5455 1.2225 15.5758 0 20 0C24.4242 0 28.4545 1.2225 32.0909 3.6675C35.7273 6.1125 38.3636 9.39 40 13.5C38.3636 17.61 35.7273 20.8875 32.0909 23.3325C28.4545 25.7775 24.4242 27 20 27ZM20 23.4C23.4242 23.4 26.5682 22.5075 29.4318 20.7225C32.2955 18.9375 34.4848 16.53 36 13.5C34.4848 10.47 32.2955 8.0625 29.4318 6.2775C26.5682 4.4925 23.4242 3.6 20 3.6C16.5758 3.6 13.4318 4.4925 10.5682 6.2775C7.70455 8.0625 5.51515 10.47 4 13.5C5.51515 16.53 7.70455 18.9375 10.5682 20.7225C13.4318 22.5075 16.5758 23.4 20 23.4Z" fill="#6399BA"/>
</svg>
